<svg width="128" height="128" viewBox="0 0 20 20" xmlns="http://www.w3.org/2000/svg" fill="currentColor" focusable="false" aria-hidden="true"><path d="M10 1C10.5028 1 10.9104 1.40294 10.9104 1.9V3.7L10.91 3.72853L10.9091 3.74806L10.9073 3.77416C13.4923 4.20139 15.4625 6.42325 15.4625 9.1C15.4625 11.884 16.0315 12.9808 16.918 14.6892L16.9495 14.7503C17.104 15.0479 16.8853 15.4 16.5468 15.4H3.45324C3.11472 15.4 2.896 15.0479 3.05048 14.7503L3.08204 14.6892C3.96846 12.9808 4.53747 11.884 4.53747 9.1C4.53747 6.42325 6.50768 4.20139 9.09269 3.77416L9.09069 3.73855C9.09002 3.72577 9.08958 3.71292 9.08958 3.7V1.9C9.08958 1.40294 9.49722 1 10 1Z"></path><path d="M11.8208 17.2C11.8208 18.1941 11.0056 19 10 19C8.99445 19 8.17916 18.1941 8.17916 17.2H11.8208Z"></path></svg>