<svg width="128" height="128" viewBox="0 0 20 20" xmlns="http://www.w3.org/2000/svg" fill="currentColor" focusable="false" aria-hidden="true">
<path d="M15.43575,8.693875 L15.4545,11.016375 C15.45575,11.181375 15.48825,11.345125 15.552,11.497625 L16.8745,14.723875 L3.1245,14.723875 L4.617,11.522625 C4.697,11.350125 4.73825,11.163875 4.73825,10.972625 L4.73825,8.693875 L4.73825,7.568875 C4.73825,4.616375 7.13075,2.223875 10.08325,2.223875 C13.03325,2.223875 15.42575,4.618875 15.42825,7.570125 C15.4295,8.235125 15.43075,8.690125 15.43575,8.693875 Z" stroke-linejoin="round"></path>
<path d="M10,17.775875 L10,17.775875 C8.62,17.775875 7.5,16.655875 7.5,15.275875 L7.5,14.777125 L12.5,14.777125 L12.5,15.275875 C12.5,16.655875 11.38,17.775875 10,17.775875 Z"></path>
</svg>
